<?xml version="1.0" encoding="utf-8"?>
<!-- Generator: Adobe Illustrator 22.1.0, SVG Export Plug-In . SVG Version: 6.00 Build 0)  -->
<svg version="1.1" xmlns="http://www.w3.org/2000/svg" xmlns:xlink="http://www.w3.org/1999/xlink" x="0px" y="0px"
	 viewBox="0 0 400 100" style="enable-background:new 0 0 400 100;" xml:space="preserve">
<style type="text/css">
	.st0{fill:#C6C6C5;}
	.st1{fill:#1D1D1B;}
	.st2{fill:#CCCCCC;}
	.st3{display:none;}
	.st4{display:inline;}
	.st5{font-family:'Oswald-Bold';}
	.st6{font-size:47.1516px;}
</style>
<g id="Layer_1">
	<g>
		<path class="st0" d="M64.9,56c-5.5,0-9.9-4.4-9.9-9.9c0-5.5,4.4-9.9,9.9-9.9c5.5,0,9.9,4.4,9.9,9.9C74.8,51.6,70.4,56,64.9,56"/>
		<path class="st0" d="M94.6,63.6c-3.1,0-5.7-2.6-5.7-5.7c0-3.1,2.6-5.7,5.7-5.7c3.1,0,5.7,2.6,5.7,5.7
			C100.3,61.1,97.7,63.6,94.6,63.6"/>
		<path class="st0" d="M61.5,72.3c-1.9,0-3.4-1.5-3.4-3.4s1.5-3.4,3.4-3.4c1.9,0,3.4,1.5,3.4,3.4S63.4,72.3,61.5,72.3"/>
		<path class="st0" d="M99.5,77c-1.9,0-3.4-1.5-3.4-3.4s1.5-3.4,3.4-3.4c1.9,0,3.4,1.5,3.4,3.4S101.3,77,99.5,77"/>
		<path class="st0" d="M79.3,68.9c-2.5,0-4.4-2-4.4-4.4c0-2.5,2-4.4,4.4-4.4s4.4,2,4.4,4.4C83.7,66.9,81.7,68.9,79.3,68.9"/>
	</g>
</g>
<g id="Logo_tekst">
	<g>
		<path class="st1" d="M118.3,74.7c-1.8-1.9-2.7-5-2.9-9.2l7.2-1.1c0,2.4,0.3,4.2,0.9,5.2c0.5,1.1,1.4,1.6,2.5,1.6
			c1.4,0,2.1-0.9,2.1-2.8c0-1.5-0.3-2.8-1-3.8c-0.7-1.1-1.7-2.2-3.2-3.4l-3.3-2.9c-1.6-1.4-2.9-2.9-3.8-4.4
			c-0.9-1.6-1.3-3.4-1.3-5.5c0-3.2,1-5.7,2.9-7.4c1.9-1.7,4.5-2.6,7.9-2.6c3.6,0,6.1,1.1,7.4,3.2c1.3,2.1,2,4.7,2.1,7.7l-7.3,0.9
			c-0.1-2-0.2-3.4-0.5-4.3c-0.3-0.9-1-1.3-2-1.3c-0.7,0-1.3,0.3-1.7,0.9c-0.4,0.6-0.6,1.3-0.6,2.1c0,1.3,0.3,2.4,0.9,3.3
			c0.6,0.9,1.5,1.9,2.8,3l3.2,2.8c1.9,1.6,3.3,3.3,4.4,5.1c1,1.8,1.6,3.9,1.6,6.4c0,1.8-0.4,3.4-1.2,4.9c-0.8,1.5-2,2.6-3.5,3.5
			s-3.3,1.3-5.2,1.3C122.8,77.6,120.1,76.6,118.3,74.7z"/>
		<path class="st1" d="M142.6,74.3c-1.7-2.2-2.6-5.3-2.6-9.5V51.1c0-4.2,0.9-7.4,2.6-9.5c1.7-2.2,4.7-3.2,8.9-3.2c4,0,6.8,1,8.5,2.9
			c1.7,1.9,2.5,4.6,2.5,8.2v3.3h-8.3v-3.8c0-1.5-0.2-2.6-0.5-3.4c-0.3-0.8-1.1-1.2-2.3-1.2c-1.2,0-2,0.4-2.4,1.2
			c-0.4,0.8-0.6,2-0.6,3.5v18c0,1.5,0.2,2.7,0.6,3.5s1.2,1.2,2.3,1.2c1.2,0,1.9-0.4,2.2-1.2s0.5-2,0.5-3.5v-4h8.3v3.3
			c0,3.6-0.8,6.4-2.5,8.4c-1.7,2-4.5,3-8.5,3C147.3,77.6,144.4,76.5,142.6,74.3z"/>
		<path class="st1" d="M171.3,76.2c-1.7-0.9-2.8-2.3-3.5-4.1c-0.7-1.8-1-4.1-1-6.9V38.8h8.3v27.6c0,1.5,0.2,2.8,0.6,3.7
			c0.4,0.9,1.2,1.4,2.4,1.4c1.2,0,2-0.5,2.4-1.4c0.4-0.9,0.6-2.1,0.6-3.7V38.8h8.4v26.4c0,2.8-0.3,5.1-1,6.9
			c-0.7,1.8-1.9,3.2-3.5,4.1s-3.9,1.4-6.8,1.4C175.3,77.6,173,77.1,171.3,76.2z"/>
		<path class="st1" d="M194.8,38.8h9.9c2.5,0,4.6,0.3,6.3,0.8c1.7,0.5,3.2,1.5,4.2,3c1.1,1.5,1.6,3.6,1.6,6.2c0,2.3-0.5,4-1.5,5.3
			c-1,1.3-2.4,2.1-4.1,2.4c2.2,0.3,3.9,1.2,5,2.8c1.2,1.6,1.7,3.7,1.7,6.4c0,7.5-3.9,11.3-11.6,11.3h-11.7V38.8z M204.9,54.1
			c1.8,0,3-0.4,3.7-1.2c0.6-0.8,1-2.1,1-3.8c0-1.5-0.4-2.6-1.2-3.4c-0.8-0.8-2-1.2-3.6-1.2h-1.5v9.6H204.9z M205.1,71.1
			c1.8,0,3.1-0.4,3.8-1.3c0.7-0.9,1.1-2.3,1.1-4.2c0-2.2-0.4-3.7-1.1-4.6s-2-1.3-3.8-1.3h-1.7v11.5H205.1z"/>
		<path class="st1" d="M227.9,38.8h9.6l7.1,38.2h-7.8l-1.3-8.1h-5.6l-1.3,8.1h-8L227.9,38.8z M234.8,63.9l-2-14.9l-2,14.9H234.8z"/>
		<path class="st2" d="M248.5,38.8h8.4v32.5h8.8V77h-17.2V38.8z"/>
		<path class="st2" d="M269.4,38.8h8.4V77h-8.4V38.8z"/>
		<path class="st2" d="M281.8,38.8h7.2l4.1,25.9l3.8-25.9h7.6l-7,38.2h-8.9L281.8,38.8z"/>
		<path class="st2" d="M308.4,38.8h8.4V77h-8.4V38.8z"/>
		<path class="st2" d="M322.6,38.8h5.9l7.8,18.4V38.8h7V77h-5.7l-7.8-19.8V77h-7.2V38.8z"/>
		<path class="st2" d="M350.9,74.2c-1.6-2.3-2.4-5.5-2.4-9.8V51.6c0-4.3,0.9-7.6,2.6-9.9c1.7-2.3,4.7-3.4,8.8-3.4c4,0,6.9,1,8.6,2.9
			c1.7,1.9,2.6,4.7,2.6,8.3v2.5h-8.3v-3.1c0-1.5-0.2-2.6-0.5-3.4c-0.3-0.8-1.1-1.2-2.3-1.2c-1.2,0-2,0.4-2.4,1.3
			c-0.4,0.8-0.5,2-0.5,3.5v17.7c0,1.5,0.2,2.7,0.7,3.6c0.5,0.9,1.3,1.3,2.5,1.3c2.2,0,3.3-1.6,3.3-5v-4.5h-3.4v-5h11V77h-5.6
			l-0.5-3.2c-1.2,2.5-3.3,3.7-6.2,3.7C355.2,77.6,352.5,76.5,350.9,74.2z"/>
	</g>
</g>
<g id="Logo_tekst_copy" class="st3">
	<text transform="matrix(1 0 0 1 113.4854 77.0332)" class="st4"><tspan x="0" y="0" class="st1 st5 st6">SCU</tspan><tspan x="78.5" y="0" class="st1 st5 st6">B</tspan><tspan x="106.2" y="0" class="st1 st5 st6">A</tspan><tspan x="132.2" y="0" class="st2 st5 st6">LIVING</tspan></text>
</g>
<g id="Text_lag">
</g>
</svg>
