<?xml version="1.0" encoding="utf-8"?>
<!-- Generator: Adobe Illustrator 22.1.0, SVG Export Plug-In . SVG Version: 6.00 Build 0)  -->
<svg version="1.1" xmlns="http://www.w3.org/2000/svg" xmlns:xlink="http://www.w3.org/1999/xlink" x="0px" y="0px"
	 viewBox="0 0 400 200" style="enable-background:new 0 0 400 200;" xml:space="preserve">
<style type="text/css">
	.st0{fill:#C6C6C5;}
	.st1{display:none;}
	.st2{display:inline;}
	.st3{fill:#1D1D1B;}
	.st4{font-family:'Oswald-Bold';}
	.st5{font-size:47.1516px;}
	.st6{display:inline;fill:#C6C6C5;}
	.st7{font-size:49.988px;}
</style>
<g id="Layer_1">
	<g>
		<path class="st0" d="M59.5,84.1C46,84.1,35,73.2,35,59.6c0-13.5,11-24.5,24.5-24.5S84,46.1,84,59.6C84,73.2,73,84.1,59.5,84.1"/>
		<path class="st0" d="M132.8,103c-7.8,0-14.1-6.3-14.1-14.1c0-7.8,6.3-14.1,14.1-14.1s14.1,6.3,14.1,14.1
			C146.9,96.7,140.6,103,132.8,103"/>
		<path class="st0" d="M51,124.3c-4.7,0-8.4-3.8-8.4-8.4c0-4.7,3.8-8.4,8.4-8.4s8.4,3.8,8.4,8.4C59.5,120.5,55.7,124.3,51,124.3"/>
		<path class="st0" d="M144.8,135.9c-4.7,0-8.4-3.8-8.4-8.4c0-4.7,3.8-8.4,8.4-8.4s8.4,3.8,8.4,8.4
			C153.3,132.1,149.5,135.9,144.8,135.9"/>
		<path class="st0" d="M94.9,115.9c-6.1,0-11-4.9-11-11s4.9-11,11-11s11,4.9,11,11S101,115.9,94.9,115.9"/>
	</g>
</g>
<g id="Logo_tekst" class="st1">
	<text transform="matrix(1 0 0 1 130.4854 119.0332)" class="st2"><tspan x="0" y="0" class="st3 st4 st5">SCU</tspan><tspan x="78.5" y="0" class="st3 st4 st5">B</tspan><tspan x="106.2" y="0" class="st3 st4 st5">A</tspan></text>
	<text transform="matrix(1 0 0 1 130.4854 167.1055)" class="st6 st4 st7">LIVING</text>
</g>
<g id="Text_lag">
	<g>
		<path class="st3" d="M182.3,98.1c-2.4-2.6-3.6-6.6-3.8-12.2l9.5-1.4c0,3.2,0.4,5.5,1.2,6.9c0.7,1.4,1.8,2.1,3.3,2.1
			c1.9,0,2.8-1.2,2.8-3.7c0-2-0.4-3.6-1.3-5.1c-0.9-1.4-2.3-2.9-4.2-4.6l-4.4-3.8c-2.2-1.8-3.8-3.8-5-5.8c-1.2-2.1-1.8-4.5-1.8-7.3
			c0-4.2,1.3-7.5,3.8-9.8c2.5-2.3,6-3.4,10.4-3.4c4.8,0,8,1.4,9.8,4.2c1.7,2.8,2.7,6.2,2.8,10.2l-9.6,1.2c-0.1-2.6-0.3-4.5-0.7-5.6
			c-0.4-1.1-1.3-1.7-2.6-1.7c-1,0-1.7,0.4-2.2,1.2c-0.5,0.8-0.8,1.7-0.8,2.7c0,1.7,0.4,3.1,1.2,4.3c0.8,1.2,2,2.5,3.7,4l4.2,3.7
			c2.5,2.1,4.4,4.4,5.8,6.7c1.4,2.4,2.1,5.2,2.1,8.4c0,2.4-0.6,4.5-1.7,6.5c-1.1,1.9-2.7,3.5-4.6,4.6c-2,1.1-4.3,1.7-6.9,1.7
			C188.2,101.9,184.7,100.6,182.3,98.1z"/>
		<path class="st3" d="M214.5,97.6c-2.3-2.9-3.5-7.1-3.5-12.5V66.8c0-5.6,1.1-9.8,3.4-12.6c2.3-2.8,6.2-4.3,11.7-4.3
			c5.3,0,9,1.3,11.2,3.8c2.2,2.5,3.3,6.1,3.3,10.8v4.4h-10.9v-5.1c0-2-0.2-3.5-0.6-4.5c-0.4-1-1.4-1.6-3-1.6c-1.6,0-2.6,0.6-3.1,1.7
			c-0.5,1.1-0.7,2.6-0.7,4.6v23.8c0,2,0.3,3.5,0.8,4.6c0.5,1.1,1.5,1.6,3.1,1.6c1.5,0,2.5-0.5,3-1.6s0.7-2.6,0.7-4.6v-5.3h10.9v4.4
			c0,4.7-1.1,8.4-3.3,11.1c-2.2,2.6-5.9,4-11.2,4C220.7,101.9,216.8,100.5,214.5,97.6z"/>
		<path class="st3" d="M252.5,100.1c-2.2-1.2-3.8-3-4.6-5.4c-0.9-2.4-1.3-5.4-1.3-9.1V50.6h11v36.6c0,2,0.3,3.7,0.8,4.9
			c0.5,1.2,1.6,1.8,3.2,1.8c1.6,0,2.6-0.6,3.1-1.8c0.5-1.2,0.7-2.8,0.7-4.9V50.6h11.1v34.9c0,3.7-0.5,6.7-1.4,9.1
			c-0.9,2.4-2.5,4.2-4.6,5.4c-2.2,1.2-5.2,1.8-9,1.8C257.7,101.9,254.7,101.3,252.5,100.1z"/>
		<path class="st3" d="M283.5,50.6h13.2c3.3,0,6.1,0.3,8.4,1c2.3,0.7,4.2,2,5.6,4c1.4,2,2.1,4.7,2.1,8.2c0,3-0.6,5.3-1.9,7
			c-1.3,1.7-3.1,2.7-5.5,3.2c2.9,0.4,5.1,1.6,6.7,3.7c1.5,2.1,2.3,4.9,2.3,8.5c0,10-5.1,15-15.3,15h-15.5V50.6z M296.9,70.8
			c2.4,0,4-0.5,4.8-1.6c0.9-1.1,1.3-2.8,1.3-5.1c0-2-0.5-3.5-1.6-4.5c-1.1-1-2.7-1.5-4.7-1.5h-1.9v12.7H296.9z M297.1,93.4
			c2.4,0,4-0.6,5-1.8c1-1.2,1.5-3,1.5-5.6c0-2.9-0.5-4.9-1.5-6.1c-1-1.2-2.7-1.7-5.1-1.7h-2.3v15.2H297.1z"/>
		<path class="st3" d="M327.3,50.6H340l9.4,50.5h-10.3l-1.7-10.7H330l-1.7,10.7h-10.5L327.3,50.6z M336.4,83.8l-2.7-19.7L331,83.8
			H336.4z"/>
	</g>
	<g>
		<path class="st0" d="M179.9,111.2h11.8v45.6H204v8h-24.1V111.2z"/>
		<path class="st0" d="M209.3,111.2h11.8v53.6h-11.8V111.2z"/>
		<path class="st0" d="M226.6,111.2h10.1l5.8,36.4l5.4-36.4h10.7l-9.8,53.6h-12.5L226.6,111.2z"/>
		<path class="st0" d="M264,111.2h11.8v53.6H264V111.2z"/>
		<path class="st0" d="M283.8,111.2h8.3l11,25.8v-25.8h9.8v53.6h-8l-11-27.8v27.8h-10.1V111.2z"/>
		<path class="st0" d="M323.6,160.7c-2.2-3.2-3.4-7.8-3.4-13.7v-18c0-6,1.2-10.7,3.7-13.8c2.4-3.2,6.6-4.8,12.4-4.8
			c5.6,0,9.6,1.4,12,4.1c2.4,2.7,3.6,6.6,3.6,11.6v3.4h-11.6v-4.4c0-2.1-0.2-3.7-0.7-4.8c-0.5-1.1-1.6-1.6-3.2-1.6
			c-1.7,0-2.8,0.6-3.3,1.8c-0.5,1.2-0.8,2.8-0.8,5v24.8c0,2.1,0.3,3.8,1,5c0.6,1.2,1.8,1.8,3.5,1.8c3.1,0,4.6-2.3,4.6-6.9v-6.3h-4.8
			V137H352v27.8h-7.8l-0.7-4.4c-1.7,3.5-4.6,5.2-8.7,5.2C329.6,165.6,325.8,164,323.6,160.7z"/>
	</g>
</g>
</svg>
